<svg width="193" height="104" viewBox="0 0 193 104" fill="none" xmlns="http://www.w3.org/2000/svg">
<path d="M6.2394 60.3622C4.58844 60.3622 2.74647 60.3622 1 60.3622C1.17738 59.5299 1.47755 58.7112 1.47755 57.8926C1.51848 50.9067 1.50484 43.9345 1.47755 36.9486C1.47755 36.2255 1.25924 35.5023 1.13644 34.7246C3.30588 34.7246 5.62541 34.7246 7.72663 34.7246C7.72663 35.325 7.52196 36.0208 7.75392 36.4984C10.1417 41.2056 12.6113 45.8856 15.0672 50.5656C15.1355 50.7021 15.2856 50.7839 15.5584 51.0295C16.7182 48.9283 17.837 46.9089 18.9422 44.8759C20.4567 42.0925 21.9713 39.3227 23.4175 36.5257C23.6631 36.0481 23.5813 35.3932 23.6768 34.7246C25.6006 34.7246 27.8246 34.7246 30.076 34.7246C29.2709 36.7303 29.5438 59.2843 30.458 60.294C28.2749 60.294 26.201 60.294 24.127 60.294C24.3726 59.7755 24.7956 59.2843 24.7956 58.7931C24.8502 53.6902 24.8229 48.5872 24.8229 43.4706C24.6865 43.416 24.5364 43.3614 24.3999 43.3205C21.3982 48.9829 18.3965 54.6453 15.1764 60.717C12.0382 54.6589 9.07741 48.9283 6.10296 43.1977C6.00745 43.225 5.89829 43.2386 5.80278 43.2659C5.7755 43.6616 5.70728 44.0573 5.70728 44.453C5.67999 49.0375 5.63905 53.6219 5.66634 58.1928C5.66634 58.875 6.00745 59.5572 6.2394 60.3622Z" fill="white"/>
<path d="M79.2227 41.8059C79.2227 47.5365 79.209 53.158 79.25 58.7658C79.25 59.257 79.6866 59.7345 79.9595 60.2939C78.1857 60.2939 76.3165 60.2939 74.5291 60.2939C74.6791 59.5981 74.9793 58.8749 74.9793 58.1518C75.0066 51.1113 75.0066 44.0709 74.9793 37.0304C74.9793 36.2664 74.7474 35.5023 74.6246 34.7109C76.6166 34.7109 78.7861 34.7109 80.8464 34.7109C80.9009 35.1748 80.7918 35.7888 81.0374 36.0617C86.0175 41.4239 91.025 46.7315 96.0461 52.0528C96.1007 52.121 96.2371 52.1074 96.3462 52.121C96.9193 49.6105 96.6464 35.9116 95.9779 34.6973C97.7925 34.6973 99.5799 34.6973 101.245 34.6973C101.108 35.666 100.849 36.6211 100.849 37.5762C100.808 44.3438 100.808 51.1113 100.849 57.8789C100.849 58.6566 101.163 59.4343 101.354 60.2803C99.6891 60.2803 97.6834 60.2803 95.896 60.2803C95.7596 59.7209 95.8005 59.1205 95.5139 58.8067C90.2882 53.158 85.0351 47.5502 79.7685 41.9287C79.7139 41.8605 79.5774 41.8742 79.2227 41.8059Z" fill="white"/>
<path d="M168.797 58.0019C169.657 56.0917 170.476 54.2634 171.308 52.4214C171.69 54.5636 173.245 55.2458 174.869 55.8189C178.103 56.9513 181.391 57.0468 184.679 56.0917C185.443 55.8734 186.221 55.505 186.862 55.0275C188.732 53.6358 188.377 51.0843 186.112 50.2247C184.87 49.7472 183.465 49.6107 182.114 49.4606C180.054 49.256 177.98 49.1604 175.906 49.0377C172.29 48.833 170.285 47.4822 169.548 44.7124C168.661 41.4105 169.793 38.1905 172.577 36.4031C176.138 34.1108 180.122 33.988 184.12 34.5747C186.03 34.8612 187.845 35.7208 189.714 36.3075C190.423 36.5259 191.133 36.7169 192.02 36.9625C191.283 38.5861 190.519 40.2644 189.891 41.6697C188.909 40.9193 188.104 40.0461 187.122 39.5822C183.956 38.0949 180.6 37.9585 177.202 38.668C176.888 38.7362 176.575 38.859 176.274 38.9818C174.542 39.7186 173.505 41.083 173.777 42.4202C174.132 44.1121 175.647 44.3304 176.957 44.4805C179.876 44.7943 182.837 44.8489 185.771 45.1081C191.024 45.5857 193.657 49.2014 192.443 54.3316C191.611 57.8246 188.8 59.2981 185.703 60.0622C180.818 61.2629 175.961 61.0855 171.362 58.766C170.967 58.575 170.585 58.3567 170.175 58.2202C169.766 58.1247 169.357 58.0975 168.797 58.0019Z" fill="white"/>
<path d="M110.577 60.3213C108.994 60.3213 107.316 60.3213 106.006 60.3213C107.644 56.1462 109.322 51.8892 110.973 47.6321C112.597 43.4297 114.575 39.3637 115.707 34.752C117.263 34.752 119.296 34.752 121.151 34.752C121.22 35.4205 121.151 36.1164 121.383 36.6894C124.358 44.0573 127.373 51.4253 130.402 58.7659C130.621 59.2844 131.044 59.721 131.426 60.2667C129.556 60.2667 127.646 60.2667 125.886 60.2667C125.845 59.6664 125.886 59.0797 125.722 58.5476C125.531 57.879 125.163 57.2514 124.89 56.5964C123.607 53.5674 123.607 53.5674 120.415 53.5674C118.232 53.5674 116.049 53.4992 113.879 53.622C113.347 53.6493 112.624 54.1541 112.365 54.6453C111.71 55.8324 111.218 57.1149 110.768 58.3975C110.55 58.916 110.632 59.5436 110.577 60.3213ZM118.204 40.5917C118.068 40.5917 117.918 40.5917 117.781 40.6053C116.608 43.5252 115.421 46.4451 114.193 49.5014C116.84 49.5014 119.228 49.5014 121.779 49.5014C120.524 46.4042 119.364 43.4979 118.204 40.5917Z" fill="white"/>
<path d="M33.7463 34.6973C35.9567 34.6973 38.1943 34.6973 39.8726 34.6973C42.4377 38.2857 44.8118 41.5876 47.3224 45.1078C49.7783 41.5603 52.4526 38.504 54.663 34.6973C56.2184 34.6973 58.3333 34.6973 60.2298 34.6973C57.8694 37.9582 55.659 41.4239 53.012 44.5484C50.2968 47.7548 49.1643 51.2205 49.6828 55.3274C49.8193 56.4053 49.6555 57.5105 49.7238 58.5884C49.7647 59.1205 49.9966 59.6526 50.174 60.2666C48.2911 60.2666 46.2718 60.2666 44.3479 60.2666C44.5116 59.5435 44.8118 58.7794 44.8255 58.0017C44.8664 55.1091 45.4667 52.0119 44.5935 49.4058C43.7203 46.7997 41.3598 44.6985 39.627 42.3926C37.7031 39.8548 35.752 37.317 33.7463 34.6973Z" fill="white"/>
<path d="M64.4732 0C70.0264 4.46168 72.537 13.5897 70.1492 20.33C69.4533 14.6949 68.3345 11.8705 65.783 9.57828C63.8865 14.2173 64.6642 18.6381 66.5198 23.2498C62.7949 21.8854 59.2747 21.0258 55.3997 22.4039C57.4737 24.6143 59.9296 25.624 62.6858 26.2789C56.9415 27.6297 50.5151 24.8599 48.1546 20.0162C53.6123 17.6693 58.8927 18.5153 64.5141 21.1213C59.7113 13.7944 59.5885 6.89036 64.4732 0Z" fill="white"/>
<path d="M148.031 34.7109C149.832 34.7109 151.783 34.7109 153.748 34.7109C153.557 35.2431 153.229 35.7479 153.216 36.2527C153.175 42.8429 153.188 49.4468 153.188 55.996C155.385 56.6919 164.909 56.4053 166.109 55.6003C166.109 57.415 166.109 59.1888 166.109 60.8397C165.236 60.676 164.39 60.3622 163.531 60.3622C158.51 60.3212 153.488 60.3622 148.481 60.3622C148.222 60.3622 147.963 60.3622 147.881 60.3622C148.058 59.5845 148.345 58.9159 148.345 58.2337C148.372 51.1386 148.372 44.0436 148.358 36.9622C148.358 36.2255 148.14 35.475 148.031 34.7109Z" fill="white"/>
<path d="M136.092 60.253C136.338 59.5981 136.829 58.875 136.829 58.1382C136.883 51.0568 136.883 43.9891 136.842 36.9077C136.842 36.1845 136.501 35.475 136.31 34.7246C138.207 34.7246 140.39 34.7246 142.314 34.7246C142.123 35.325 141.768 35.9799 141.754 36.6348C141.713 43.8799 141.713 51.1114 141.754 58.3565C141.754 58.9705 142.164 59.5845 142.409 60.2667C140.39 60.253 138.057 60.253 136.092 60.253Z" fill="white"/>
<path d="M82.4017 17.0554C77.2851 25.8969 66.7654 30.3722 56.0001 29.3898C63.8046 28.3392 71.2134 27.0976 74.4744 19.1294C77.2578 18.3926 79.9458 17.6967 82.4017 17.0554Z" fill="white"/>
<path d="M19 90.32C18.0933 91.5467 16.9333 92.5733 15.52 93.4C14.1067 94.2 12.3467 94.6 10.24 94.6C9.57333 94.6 8.77333 94.4933 7.84 94.28C6.90667 94.0933 6 93.7467 5.12 93.24C4.26667 92.7067 3.54667 91.9867 2.96 91.08C2.37333 90.1467 2.08 88.9467 2.08 87.48C2.08 86.1467 2.37333 85.0267 2.96 84.12C3.54667 83.1867 4.28 82.3867 5.16 81.72C6.06667 81.0533 7 80.44 7.96 79.88C7.26667 78.9467 6.70667 78.04 6.28 77.16C5.88 76.28 5.68 75.44 5.68 74.64C5.68 73.6267 5.84 72.8133 6.16 72.2C6.50667 71.56 6.93333 71.08 7.44 70.76C7.97333 70.4133 8.53333 70.1733 9.12 70.04C9.70667 69.9067 10.2667 69.84 10.8 69.84C11.7333 69.84 12.5867 70 13.36 70.32C14.1333 70.64 14.7467 71.12 15.2 71.76C15.68 72.4 15.92 73.2133 15.92 74.2C15.92 75.56 15.48 76.7067 14.6 77.64C13.72 78.5733 12.7067 79.4267 11.56 80.2C12.4933 81.2667 13.5467 82.3467 14.72 83.44C15.92 84.5067 17.1333 85.5467 18.36 86.56C18.92 85.36 19.3733 84.0933 19.72 82.76C20.0667 81.4267 20.3733 80.1467 20.64 78.92L25 77.52L25.76 79.88L22.92 80.84C22.6267 81.88 22.28 83.04 21.88 84.32C21.48 85.6 20.96 86.8667 20.32 88.12C21.6267 89.1067 22.7867 89.9733 23.8 90.72C24.84 91.44 25.6533 91.9867 26.24 92.36L24.92 94.6C24.92 94.5733 24.36 94.1867 23.24 93.44C22.12 92.6667 20.7067 91.6267 19 90.32ZM9.36 81.68C8.24 82.4267 7.26667 83.2533 6.44 84.16C5.61333 85.0667 5.2 86.1733 5.2 87.48C5.2 88.4933 5.41333 89.32 5.84 89.96C6.26667 90.5733 6.77333 91.0533 7.36 91.4C7.97333 91.72 8.56 91.9467 9.12 92.08C9.68 92.1867 10.0933 92.24 10.36 92.24C11.88 92.24 13.1867 91.92 14.28 91.28C15.3733 90.64 16.2933 89.8 17.04 88.76C15.7067 87.6933 14.36 86.56 13 85.36C11.6667 84.1333 10.4533 82.9067 9.36 81.68ZM10.84 72.04C10.0133 72.04 9.42667 72.28 9.08 72.76C8.76 73.2133 8.6 73.8267 8.6 74.6C8.6 75.1867 8.74667 75.8133 9.04 76.48C9.33333 77.12 9.73333 77.8 10.24 78.52C11.0667 77.9867 11.7467 77.4133 12.28 76.8C12.84 76.1867 13.12 75.4267 13.12 74.52C13.12 73.6667 12.9467 73.04 12.6 72.64C12.28 72.24 11.6933 72.04 10.84 72.04ZM42.4831 94V91.24H46.2831V73.2H42.4831V70.44H52.6831C55.5365 70.44 57.7098 70.9733 59.2031 72.04C60.7231 73.08 61.4831 74.6 61.4831 76.6C61.4831 77.6667 61.1898 78.68 60.6031 79.64C60.0431 80.5733 59.2565 81.3067 58.2431 81.84C59.3631 82.24 60.3098 82.9333 61.0831 83.92C61.8565 84.9067 62.2431 86.12 62.2431 87.56C62.2431 89.4267 61.6031 90.9733 60.3231 92.2C59.0431 93.4 57.0565 94 54.3631 94H42.4831ZM49.4431 91.2H54.2031C55.6965 91.2 56.8431 90.8667 57.6431 90.2C58.4431 89.5067 58.8431 88.48 58.8431 87.12C58.8431 85.8933 58.4565 84.9467 57.6831 84.28C56.9365 83.6133 55.8565 83.28 54.4431 83.28H49.4831L49.4431 91.2ZM49.4831 80.88H54.4831C55.6565 80.88 56.5498 80.5333 57.1631 79.84C57.7765 79.1467 58.0831 78.2133 58.0831 77.04C58.0831 74.48 56.4298 73.2 53.1231 73.2H49.4831V80.88ZM66.1497 70.44H83.9097L85.9497 76.6L83.3497 77.48L81.7497 73.2H73.1897V80.44H80.6697V83.2H73.1897L73.1497 91.24H82.5497L84.1497 86.96L86.7497 87.84L84.7097 94H66.1097V91.24H69.9497L69.9897 73.2H66.1497V70.44ZM89.9062 94V91.24H93.7462L100.386 73.2H96.3462V70.44H104.106L111.346 91.24H115.146V94H105.426V91.24H107.946L106.666 87.6H98.0262L96.6662 91.24H99.2262V94H89.9062ZM99.0262 84.84H105.706L102.546 74.48L99.0262 84.84ZM135.489 85.4C135.489 88.1467 134.782 90.3733 133.369 92.08C131.956 93.76 129.716 94.6 126.649 94.6C123.716 94.6 121.569 93.76 120.209 92.08C118.876 90.3733 118.209 88.1467 118.209 85.4V73.2H114.369V70.44H123.969V73.2H121.409V86.48C121.409 88.3467 121.889 89.72 122.849 90.6C123.809 91.4533 125.076 91.88 126.649 91.88C128.356 91.88 129.716 91.4133 130.729 90.48C131.769 89.52 132.289 88.0533 132.289 86.08V73.2H129.729V70.44H139.329V73.2H135.489V85.4ZM143.238 70.44H163.838V77H160.798V73.2H155.158L155.078 91.24H158.878V94H148.078V91.24H151.878L151.918 73.2H146.278V77H143.238V70.44ZM166.835 70.44H176.395V73.2H174.275L179.835 81.04L186.075 73.2H183.075V70.44H192.555V73.2H189.835L181.315 83.72L181.235 91.24H184.995V94H174.315V91.24H178.075L178.115 83.84L170.195 73.2H166.835V70.44Z" fill="white"/>
</svg>
