<svg width="134" height="43" viewBox="0 0 134 43" fill="none" xmlns="http://www.w3.org/2000/svg">
<path d="M3.65448 42.3047C2.50294 42.3047 1.21816 42.3047 0 42.3047C0.123719 41.7242 0.333091 41.1532 0.333091 40.5822C0.361641 35.7095 0.352124 30.8464 0.333091 25.9738C0.333091 25.4694 0.180821 24.965 0.0951688 24.4225C1.60835 24.4225 3.22622 24.4225 4.69182 24.4225C4.69182 24.8413 4.54907 25.3266 4.71085 25.6597C6.37631 28.943 8.09886 32.2073 9.8119 35.4716C9.85948 35.5668 9.96417 35.6239 10.1545 35.7952C10.9634 34.3296 11.7438 32.9211 12.5147 31.5031C13.5711 29.5616 14.6274 27.6297 15.6362 25.6787C15.8075 25.3457 15.7504 24.8888 15.817 24.4225C17.1589 24.4225 18.7102 24.4225 20.2805 24.4225C19.719 25.8215 19.9093 41.5529 20.5469 42.2571C19.0242 42.2571 17.5777 42.2571 16.1311 42.2571C16.3024 41.8955 16.5974 41.5529 16.5974 41.2103C16.6355 37.651 16.6165 34.0917 16.6165 30.5228C16.5213 30.4848 16.4166 30.4467 16.3214 30.4181C14.2277 34.3677 12.134 38.3172 9.88803 42.5522C7.69915 38.3267 5.63399 34.3296 3.55931 30.3325C3.49269 30.3515 3.41656 30.361 3.34994 30.3801C3.33091 30.6561 3.28332 30.9321 3.28332 31.208C3.26429 34.4057 3.23574 37.6034 3.25477 40.7915C3.25477 41.2674 3.49269 41.7432 3.65448 42.3047Z" fill="#E26886"/>
<path d="M54.5603 29.3618C54.5603 33.3589 54.5508 37.2798 54.5793 41.1912C54.5793 41.5338 54.8839 41.8669 55.0742 42.2571C53.837 42.2571 52.5332 42.2571 51.2865 42.2571C51.3912 41.7718 51.6006 41.2674 51.6006 40.763C51.6196 35.8523 51.6196 30.9416 51.6006 26.0309C51.6006 25.4979 51.4388 24.965 51.3531 24.413C52.7426 24.413 54.2558 24.413 55.6928 24.413C55.7309 24.7366 55.6547 25.1648 55.826 25.3552C59.2997 29.0953 62.7924 32.7974 66.2946 36.5089C66.3327 36.5565 66.4278 36.547 66.504 36.5565C66.9037 34.8054 66.7134 25.2505 66.247 24.4035C67.5128 24.4035 68.7595 24.4035 69.9205 24.4035C69.8254 25.0792 69.6446 25.7454 69.6446 26.4115C69.616 31.1319 69.616 35.8523 69.6446 40.5726C69.6446 41.1151 69.8634 41.6576 69.9967 42.2476C68.8356 42.2476 67.4366 42.2476 66.1899 42.2476C66.0948 41.8574 66.1233 41.4387 65.9235 41.2198C62.2785 37.2798 58.6145 33.3684 54.941 29.4474C54.9029 29.3998 54.8077 29.4093 54.5603 29.3618Z" fill="#E26886"/>
<path d="M117.039 40.6583C117.638 39.3259 118.209 38.0507 118.79 36.7659C119.056 38.26 120.141 38.7359 121.274 39.1356C123.529 39.9255 125.823 39.9921 128.116 39.3259C128.649 39.1737 129.192 38.9167 129.639 38.5836C130.943 37.6129 130.695 35.8332 129.115 35.2337C128.249 34.9006 127.269 34.8054 126.327 34.7007C124.89 34.558 123.443 34.4914 121.997 34.4057C119.475 34.263 118.076 33.3208 117.562 31.3889C116.943 29.0858 117.733 26.8398 119.675 25.5931C122.159 23.9942 124.938 23.9086 127.726 24.3178C129.058 24.5177 130.324 25.1172 131.628 25.5265C132.123 25.6787 132.618 25.812 133.236 25.9833C132.722 27.1158 132.189 28.2864 131.752 29.2666C131.066 28.7432 130.505 28.1341 129.82 27.8105C127.612 26.7732 125.271 26.678 122.901 27.1729C122.682 27.2205 122.463 27.3061 122.254 27.3918C121.045 27.9057 120.322 28.8574 120.512 29.79C120.76 30.9701 121.816 31.1224 122.73 31.2271C124.766 31.446 126.831 31.484 128.878 31.6648C132.542 31.9979 134.378 34.5199 133.531 38.0983C132.951 40.5346 130.99 41.5624 128.83 42.0953C125.423 42.9328 122.035 42.8091 118.828 41.1912C118.552 41.058 118.285 40.9057 118 40.8106C117.714 40.7439 117.429 40.7249 117.039 40.6583Z" fill="#E26886"/>
<path d="M76.43 42.2761C75.326 42.2761 74.1554 42.2761 73.2418 42.2761C74.3838 39.364 75.5544 36.3947 76.706 33.4254C77.8385 30.4942 79.2184 27.6582 80.0083 24.4415C81.0932 24.4415 82.5113 24.4415 83.8056 24.4415C83.8531 24.9078 83.8056 25.3932 83.9673 25.7929C86.042 30.932 88.1452 36.0711 90.258 41.1912C90.4103 41.5528 90.7053 41.8574 90.9718 42.2381C89.6679 42.2381 88.3356 42.2381 87.1079 42.2381C87.0794 41.8193 87.1079 41.4101 86.9937 41.0389C86.8605 40.5726 86.6035 40.1348 86.4132 39.678C85.5186 37.5653 85.5186 37.5653 83.2916 37.5653C81.7689 37.5653 80.2462 37.5177 78.7331 37.6033C78.3619 37.6224 77.8575 37.9745 77.6767 38.3171C77.2199 39.1451 76.8773 40.0397 76.5632 40.9342C76.4109 41.2959 76.468 41.7337 76.43 42.2761ZM81.7499 28.5147C81.6547 28.5147 81.5501 28.5147 81.4549 28.5242C80.6364 30.5608 79.8085 32.5975 78.9519 34.7292C80.7982 34.7292 82.4637 34.7292 84.2433 34.7292C83.3678 32.5689 82.5588 30.5418 81.7499 28.5147Z" fill="#E26886"/>
<path d="M22.8406 24.4035C24.3823 24.4035 25.9431 24.4035 27.1137 24.4035C28.9028 26.9064 30.5588 29.2095 32.3099 31.6649C34.0229 29.1905 35.8882 27.0587 37.43 24.4035C38.5149 24.4035 39.99 24.4035 41.3128 24.4035C39.6664 26.678 38.1247 29.0953 36.2784 31.2747C34.3845 33.5111 33.5946 35.9284 33.9563 38.793C34.0515 39.5448 33.9373 40.3157 33.9848 41.0675C34.0134 41.4387 34.1752 41.8098 34.2989 42.2381C32.9856 42.2381 31.5771 42.2381 30.2352 42.2381C30.3494 41.7337 30.5588 41.2008 30.5683 40.6583C30.5968 38.6407 31.0156 36.4804 30.4065 34.6627C29.7974 32.8449 28.151 31.3793 26.9423 29.771C25.6005 28.0009 24.2396 26.2307 22.8406 24.4035Z" fill="#E26886"/>
<path d="M44.2726 0.202057C48.1459 3.31408 49.897 9.68086 48.2316 14.3822C47.7462 10.4517 46.9658 8.48174 45.1862 6.8829C43.8633 10.1186 44.4058 13.2021 45.7001 16.4188C43.102 15.4671 40.6466 14.8676 37.9438 15.8288C39.3904 17.3705 41.1034 18.0747 43.0259 18.5316C39.0192 19.4737 34.5368 17.5418 32.8904 14.1633C36.6971 12.5264 40.3802 13.1165 44.3011 14.9342C40.9512 9.82362 40.8655 5.00808 44.2726 0.202057Z" fill="#E26886"/>
<path d="M102.554 24.413C103.81 24.413 105.171 24.413 106.541 24.413C106.408 24.7841 106.18 25.1362 106.17 25.4884C106.142 30.085 106.151 34.6912 106.151 39.2593C107.683 39.7447 114.326 39.5448 115.164 38.9833C115.164 40.249 115.164 41.4862 115.164 42.6378C114.555 42.5236 113.965 42.3047 113.365 42.3047C109.863 42.2761 106.361 42.3047 102.868 42.3047C102.687 42.3047 102.506 42.3047 102.449 42.3047C102.573 41.7622 102.773 41.2959 102.773 40.8201C102.792 35.8713 102.792 30.9225 102.782 25.9832C102.782 25.4693 102.63 24.9459 102.554 24.413Z" fill="#E26886"/>
<path d="M94.2267 42.2286C94.398 41.7718 94.7406 41.2674 94.7406 40.7535C94.7787 35.8142 94.7787 30.8845 94.7501 25.9452C94.7501 25.4408 94.5122 24.9459 94.379 24.4225C95.7018 24.4225 97.2245 24.4225 98.5664 24.4225C98.4331 24.8413 98.1857 25.2981 98.1762 25.7549C98.1476 30.8083 98.1476 35.8523 98.1762 40.9057C98.1762 41.334 98.4617 41.7623 98.633 42.2381C97.2245 42.2286 95.5971 42.2286 94.2267 42.2286Z" fill="#E26886"/>
<path d="M56.7776 12.0981C53.2088 18.2651 45.8712 21.3866 38.3624 20.7014C43.8061 19.9686 48.9737 19.1026 51.2483 13.5447C53.1897 13.0308 55.0645 12.5454 56.7776 12.0981Z" fill="#E26886"/>
</svg>
