<svg width="375" height="62" viewBox="0 0 375 62" fill="none" xmlns="http://www.w3.org/2000/svg">
<path d="M147.462 0C153.405 4.77439 156.091 14.5422 153.536 21.7549C152.791 15.7248 151.594 12.7025 148.864 10.2496C146.834 15.2138 147.667 19.9444 149.652 24.8794C145.666 23.4193 141.899 22.4995 137.753 23.9741C139.972 26.3394 142.6 27.4199 145.55 28.1207C139.403 29.5662 132.526 26.6022 130 21.419C135.84 18.9077 141.491 19.813 147.506 22.6017C142.367 14.7612 142.235 7.37329 147.462 0Z" fill="#2F6717"/>
<path d="M166.647 18.2507C161.172 27.7119 149.915 32.5009 138.395 31.4496C146.747 30.3254 154.675 28.9967 158.164 20.47C161.143 19.6816 164.019 18.9369 166.647 18.2507Z" fill="#2F6717"/>
<path d="M98.4562 35.152H105.528L110.904 48.88L116.216 35.152H123.032V37.36H120.024V51.792H123.032V54H115.416V51.792H117.464V37.36L116.024 41.52L112.12 51.728H109.368L105.272 41.456L103.8 37.36L103.704 51.792H105.816V54H98.3282V51.792H101.4L101.432 37.36H98.4562V35.152ZM125.455 35.152H133.103V37.36H131.407L135.856 43.632L140.847 37.36H138.448V35.152H146.031V37.36H143.856L137.04 45.776L136.976 51.792H139.984V54H131.439V51.792H134.448L134.479 45.872L128.143 37.36H125.455V35.152ZM157.627 54V51.792H160.667V37.36H157.627V35.152H165.787C168.069 35.152 169.808 35.5787 171.003 36.432C172.219 37.264 172.827 38.48 172.827 40.08C172.827 40.9333 172.592 41.744 172.123 42.512C171.675 43.2587 171.045 43.8453 170.235 44.272C171.131 44.592 171.888 45.1467 172.507 45.936C173.125 46.7253 173.435 47.696 173.435 48.848C173.435 50.3413 172.923 51.5787 171.899 52.56C170.875 53.52 169.285 54 167.131 54H157.627ZM163.195 51.76H167.003C168.197 51.76 169.115 51.4933 169.755 50.96C170.395 50.4053 170.715 49.584 170.715 48.496C170.715 47.5147 170.405 46.7573 169.787 46.224C169.189 45.6907 168.325 45.424 167.195 45.424H163.227L163.195 51.76ZM163.227 43.504H167.227C168.165 43.504 168.88 43.2267 169.371 42.672C169.861 42.1173 170.107 41.3707 170.107 40.432C170.107 38.384 168.784 37.36 166.139 37.36H163.227V43.504ZM176.56 35.152H190.768L192.4 40.08L190.32 40.784L189.04 37.36H182.192V43.152H188.176V45.36H182.192L182.16 51.792H189.68L190.96 48.368L193.04 49.072L191.408 54H176.528V51.792H179.6L179.632 37.36H176.56V35.152ZM195.565 54V51.792H198.637L203.949 37.36H200.717V35.152H206.925L212.717 51.792H215.757V54H207.981V51.792H209.997L208.973 48.88H202.061L200.973 51.792H203.021V54H195.565ZM202.861 46.672H208.205L205.677 38.384L202.861 46.672ZM232.031 47.12C232.031 49.3173 231.466 51.0987 230.335 52.464C229.205 53.808 227.413 54.48 224.959 54.48C222.613 54.48 220.895 53.808 219.807 52.464C218.741 51.0987 218.207 49.3173 218.207 47.12V37.36H215.135V35.152H222.815V37.36H220.767V47.984C220.767 49.4773 221.151 50.576 221.919 51.28C222.687 51.9627 223.701 52.304 224.959 52.304C226.325 52.304 227.413 51.9307 228.223 51.184C229.055 50.416 229.471 49.2427 229.471 47.664V37.36H227.423V35.152H235.103V37.36H232.031V47.12ZM238.231 35.152H254.711V40.4H252.279V37.36H247.767L247.703 51.792H250.743V54H242.103V51.792H245.143L245.175 37.36H240.663V40.4H238.231V35.152ZM257.108 35.152H264.756V37.36H263.06L267.508 43.632L272.5 37.36H270.1V35.152H277.684V37.36H275.508L268.692 45.776L268.628 51.792H271.636V54H263.092V51.792H266.1L266.132 45.872L259.796 37.36H257.108V35.152Z" fill="#2F6717"/>
</svg>
