<svg width="36" height="36" viewBox="0 0 36 36" fill="none" xmlns="http://www.w3.org/2000/svg">
<path d="M10.5 30H25.5" stroke="black" stroke-width="2.25" stroke-linecap="round" stroke-linejoin="round"/>
<path d="M9 9L18 7.5L27 9" stroke="black" stroke-width="2.25" stroke-linecap="round" stroke-linejoin="round"/>
<path d="M18 4.5V30" stroke="black" stroke-width="2.25" stroke-linecap="round" stroke-linejoin="round"/>
<path d="M13.5 18L9 9L4.5 18C4.5 19.1935 4.97411 20.3381 5.81802 21.182C6.66193 22.0259 7.80653 22.5 9 22.5C10.1935 22.5 11.3381 22.0259 12.182 21.182C13.0259 20.3381 13.5 19.1935 13.5 18Z" stroke="black" stroke-width="2.25" stroke-linecap="round" stroke-linejoin="round"/>
<path d="M31.5 18L27 9L22.5 18C22.5 19.1935 22.9741 20.3381 23.818 21.182C24.6619 22.0259 25.8065 22.5 27 22.5C28.1935 22.5 29.3381 22.0259 30.182 21.182C31.0259 20.3381 31.5 19.1935 31.5 18Z" stroke="black" stroke-width="2.25" stroke-linecap="round" stroke-linejoin="round"/>
</svg>
