<svg width="60" height="53" viewBox="0 0 60 53" fill="none" xmlns="http://www.w3.org/2000/svg">
<path d="M28.7838 0.940308C38.4528 8.70875 42.824 24.602 38.6666 36.3378C37.455 26.5263 35.5069 21.6086 31.0644 17.6175C27.7623 25.6948 29.1164 33.392 32.3473 41.4217C25.8617 39.046 19.7325 37.5494 12.9856 39.9488C16.5966 43.7974 20.8728 45.5554 25.6717 46.6957C15.6701 49.0476 4.4807 44.225 0.370789 35.7914C9.87347 31.7052 19.0673 33.1781 28.8551 37.7157C20.4927 24.9583 20.2789 12.9374 28.7838 0.940308Z" fill="white"/>
<path d="M60.0002 30.6362C51.0914 46.0305 32.775 53.8227 14.031 52.1123C27.6198 50.283 40.5197 48.1211 46.1976 34.2472C51.0439 32.9644 55.724 31.7528 60.0002 30.6362Z" fill="white"/>
</svg>
